<?xml version="1.0" encoding="UTF-8" standalone="no"?>
<svg
   id="svg4579"
   version="1.1"
   viewBox="0 0 3000.0001 1500"
   height="1500mm"
   width="3000mm"
   sodipodi:docname="logo_full_transparent_2x1_plain.svg"
   inkscape:version="1.2.2 (b0a8486541, 2022-12-01)"
   xmlns:inkscape="http://www.inkscape.org/namespaces/inkscape"
   xmlns:sodipodi="http://sodipodi.sourceforge.net/DTD/sodipodi-0.dtd"
   xmlns="http://www.w3.org/2000/svg"
   xmlns:svg="http://www.w3.org/2000/svg"
   xmlns:rdf="http://www.w3.org/1999/02/22-rdf-syntax-ns#"
   xmlns:cc="http://creativecommons.org/ns#"
   xmlns:dc="http://purl.org/dc/elements/1.1/">
  <sodipodi:namedview
     id="namedview21"
     pagecolor="#003060"
     bordercolor="#000000"
     borderopacity="0"
     inkscape:showpageshadow="2"
     inkscape:pageopacity="1"
     inkscape:pagecheckerboard="true"
     inkscape:deskcolor="#a0a0a0"
     inkscape:document-units="mm"
     showgrid="false"
     showborder="false"
     inkscape:zoom="0.03125"
     inkscape:cx="3792"
     inkscape:cy="-176"
     inkscape:window-width="956"
     inkscape:window-height="1026"
     inkscape:window-x="0"
     inkscape:window-y="0"
     inkscape:window-maximized="1"
     inkscape:current-layer="svg4579" />
  <defs
     id="defs4573" />
  <metadata
     id="metadata4576">
    <rdf:RDF>
      <cc:Work
         rdf:about="">
        <dc:format>image/svg+xml</dc:format>
        <dc:type
           rdf:resource="http://purl.org/dc/dcmitype/StillImage" />
      </cc:Work>
    </rdf:RDF>
  </metadata>
  <g
     id="g863"
     transform="translate(295.99194,1318.9099)">
    <text
       id="text4547"
       y="709.93439"
       x="714.02344"
       style="font-style:italic;font-variant:normal;font-weight:bold;font-stretch:normal;font-size:105.833px;line-height:1.25;font-family:'Anita Semi-square';-inkscape-font-specification:'Anita Semi-square Bold Italic';letter-spacing:0px;word-spacing:0px;fill:#0080c0;fill-opacity:1;stroke:none;stroke-width:0.264583;stroke-opacity:1"
       xml:space="preserve" />
    <g
       id="g927"
       transform="translate(12.018092)" />
    <g
       id="g948"
       transform="matrix(1.3882041,0,0,1.3882041,-55.035098,-49.037639)">
      <text
         xml:space="preserve"
         style="font-style:normal;font-variant:normal;font-weight:bold;font-stretch:normal;font-size:434.153px;line-height:1.25;font-family:'Anita Semi-square';-inkscape-font-specification:'Anita Semi-square Bold';letter-spacing:0px;word-spacing:0px;fill:#0080c0;fill-opacity:1;stroke:none;stroke-width:0.264583;stroke-miterlimit:4;stroke-dasharray:none;stroke-opacity:1"
         x="-97.936752"
         y="-175.42845"
         id="text4487"
         transform="translate(12.018095)"><tspan
           id="tspan4485"
           x="-97.936752"
           y="-175.42845"
           style="font-style:normal;font-variant:normal;font-weight:bold;font-stretch:normal;font-family:'Anita Semi-square';-inkscape-font-specification:'Anita Semi-square Bold';fill:#0080c0;fill-opacity:1;stroke:none;stroke-width:0.264583;stroke-miterlimit:4;stroke-dasharray:none;stroke-opacity:1">senvang </tspan></text>
      <path
         style="fill:#ffde80;fill-opacity:1;stroke:none;stroke-width:0.33801329"
         id="path2"
         d="M 65.20852,-71.76032 C 227.9516,-34.27638 456.16518,-8.6210597 679.25117,-2.7183697 993.67619,5.5254803 1306.283,-19.30274 1537.8577,-70.97479 c 37.2343,-8.17202 51.7673,-12.39279 36.333,-10.55185 -2.9451,0.46241 -60.364,9.08786 -127.3668,19.41137 -131.0591,20.18464 -195.2703,27.35507 -311.3575,34.71692 -203.15201,12.88338 -436.88158,9.42718 -653.16399,-9.56797 -180.50843,-15.68906 -376.6768,-45.21129 -530.074586,-79.70146 -45.938065,-10.24356 -50.139773,-10.94156 -45.233859,-6.86333 13.420722,11.85705 80.671895,33.88237 158.214555,51.77079 z"
         transform="translate(12.018095,-5.0204981e-6)" />
      <g
         transform="translate(-631.09731)"
         id="g922">
        <path
           style="fill:#ffde80;fill-opacity:1;stroke:none;stroke-width:0.09003422"
           id="path4"
           d="m 1527.6024,-732.42456 c -4.3217,8.5532 -11.8846,22.9588 -16.8364,32.0521 l -8.9134,16.5664 6.5725,14.9456 c 3.6013,8.1932 7.833,17.9169 9.5436,21.6083 l 3.0612,6.6625 7.2027,-21.7883 c 4.8619,-14.9456 7.3828,-21.248 7.833,-20.1677 0.3601,0.9004 2.9711,10.444 5.7622,21.1581 2.791,10.8041 5.402,19.6275 5.7622,19.6275 0.3601,0 5.1319,-9.2736 10.624,-20.5278 l 10.0838,-20.5279 -16.4762,-32.5023 -16.3863,-32.5024 z" />
        <path
           style="fill:#ffde80;fill-opacity:1;stroke:none;stroke-width:0.09003422"
           id="path6"
           d="m 1461.7874,-709.91596 c -3.8715,19.5374 -13.5052,41.8659 -38.1746,88.2335 -5.7622,10.8941 -12.6048,25.2096 -15.3058,31.9621 -6.3024,16.0261 -7.833,24.7594 -7.2027,40.2453 0.9904,22.4186 7.7429,40.3354 20.5278,53.9305 5.5821,6.0323 26.29,20.4378 36.7339,25.7498 5.042,2.521 17.2866,6.3024 20.4378,6.3024 0.7203,0 -1.3505,-2.5209 -4.4117,-5.6721 -7.2927,-7.2928 -12.7848,-14.2254 -15.5759,-19.7175 -5.7622,-11.3443 -6.3024,-26.3801 -1.3505,-41.0556 4.7718,-14.3155 9.9038,-22.8687 28.4508,-47.8982 19.6275,-26.3801 29.8013,-44.477 29.6213,-52.6701 -0.1801,-10.1738 -12.8749,-40.9655 -23.589,-57.1716 -5.402,-8.1933 -16.2061,-20.708 -22.8687,-26.3801 -2.701,-2.3409 -5.1319,-4.2316 -5.312,-4.2316 -0.1801,0 -1.0804,3.7814 -1.9807,8.3732 z" />
        <path
           style="fill:#ffde80;fill-opacity:1;stroke:none;stroke-width:0.09003422"
           id="path8"
           d="m 1601.7906,-713.78746 c -6.3925,5.312 -17.7368,18.547 -23.2289,27.0102 -8.8233,13.6852 -18.9972,37.2742 -22.4185,51.7697 -1.1704,5.0419 -1.1704,5.6722 0.8103,11.4344 3.4213,9.8137 15.0357,28.2707 31.8721,50.5992 21.1581,28.0907 28.0907,43.4865 28.0907,62.7539 0,15.5759 -4.3216,24.7594 -18.367,39.2549 -4.2316,4.3216 -7.7429,8.013 -7.7429,8.013 0,0.09 3.6914,-0.7202 8.1931,-1.8907 9.3636,-2.4309 17.2866,-6.3024 30.5216,-15.1257 14.9457,-9.9938 18.5471,-12.965 23.769,-19.8076 9.4536,-12.4247 15.0357,-27.4604 16.7464,-45.1071 2.0708,-21.4282 -3.3313,-41.0556 -19.7175,-71.6673 -12.2446,-22.7786 -29.7113,-58.072 -33.1326,-67.0754 -1.8007,-4.4117 -4.6818,-14.1355 -6.4824,-21.4281 l -3.3313,-13.3251 z" />
        <path
           style="fill:#ffde80;fill-opacity:1;stroke:none;stroke-width:0.09003422"
           id="path10"
           d="m 1347.2638,-706.04456 c 0.2701,1.9808 0.9004,5.3121 1.3505,7.563 0.4502,2.2508 1.2605,9.5435 1.8908,16.116 1.3505,15.5759 0.09,35.0233 -4.3217,64.9147 -2.7911,18.9072 -3.3313,24.3993 -3.3313,38.7147 0,13.5052 0.2701,17.8268 1.6207,22.9587 5.1319,18.9973 16.4762,36.5539 32.8624,50.5993 14.6756,12.6048 38.8048,26.7401 55.101,32.2322 8.7333,2.9711 9.3636,2.8811 3.5113,-1.0804 -8.8233,-5.8522 -18.9972,-14.9457 -24.8494,-22.2384 -6.6626,-8.2832 -13.2351,-20.978 -15.3058,-29.3512 -2.7911,-10.9842 -0.1801,-40.1553 5.1319,-59.4226 2.7911,-9.8137 7.4728,-20.2577 16.8364,-37.004 7.6529,-13.9553 13.6852,-26.11 13.6852,-27.8206 0,-0.4502 -3.4213,-4.3217 -7.6529,-8.7333 -4.1416,-4.3217 -7.6529,-8.1932 -7.6529,-8.5533 0,-1.3505 -21.4281,-19.8976 -28.7209,-24.8494 -12.8749,-8.8233 -27.2804,-15.4859 -36.5539,-16.9265 l -4.1416,-0.5401 z" />
        <path
           style="fill:#ffde80;fill-opacity:1;stroke:none;stroke-width:0.09003422"
           id="path12"
           d="m 1716.4041,-706.94496 c -2.9711,0.7203 -10.2639,3.6915 -16.2061,6.6626 -16.8364,8.4633 -29.2612,18.367 -49.4288,39.8852 l -10.6241,11.4343 2.521,5.9423 c 1.3505,3.2412 5.312,10.8941 8.7333,16.9264 16.2962,28.7209 21.068,41.5958 24.5794,66.7154 2.2508,16.5663 1.9807,29.8913 -0.9004,38.7147 -4.8618,15.3058 -17.8268,32.3223 -33.3126,43.6666 -3.9615,2.9711 -8.1031,5.9422 -9.0935,6.7525 -2.9711,2.1609 13.055,-3.5113 22.1484,-7.923 31.8721,-15.3958 57.5319,-38.8947 67.8858,-62.3036 4.7718,-10.8042 6.0323,-17.0165 6.4825,-32.4124 0.4502,-14.8556 0.2701,-16.8364 -4.5918,-52.2198 -4.4116,-31.7821 -4.6817,-52.6701 -0.9903,-73.738 0.7202,-4.4117 1.3505,-8.3732 1.3505,-8.7333 0,-1.0805 -2.0708,-0.9004 -8.5533,0.6301 z" />
        <path
           style="fill:#ffde80;fill-opacity:1;stroke:none;stroke-width:0.09003422"
           id="path14"
           d="m 1532.7343,-653.01436 c -8.6433,23.4989 -18.547,44.2068 -27.6405,58.2521 -2.701,4.1416 -9.6337,13.7753 -15.4859,21.4282 -11.1642,14.7656 -18.8171,28.5408 -21.6982,39.1648 -2.3409,8.4633 -2.7911,24.9395 -0.9904,33.0426 5.132,23.0488 21.6082,38.6247 48.1683,45.3773 10.624,2.791 26.29,3.0611 37.4542,0.8103 25.2997,-5.222 44.3869,-20.978 51.1395,-42.3161 2.8811,-9.2735 2.611,-23.9491 -0.6303,-35.1134 -3.4213,-11.7044 -11.0742,-26.1999 -20.7979,-39.615 -28.1807,-38.8048 -35.4734,-50.9594 -47.538,-79.6803 -1.1705,-2.7911 -1.3505,-2.9711 -1.9808,-1.3505 z" />
        <path
           style="fill:#ffde80;fill-opacity:1;stroke:none;stroke-width:0.09003422"
           id="path18"
           d="m 1303.147,-576.39526 c -8.103,1.0804 -14.9456,2.611 -28.3607,6.2124 -23.679,6.3024 -29.4412,7.1127 -49.969,7.1127 -16.5663,0 -19.2673,-0.1801 -33.5828,-2.8811 -8.5532,-1.6206 -16.2061,-3.2413 -16.9264,-3.5114 -4.3217,-1.6206 8.6432,15.2158 20.9779,27.4605 16.7464,16.4762 40.4254,32.7724 65.545,45.1972 25.3896,12.6048 53.3002,21.158 87.3332,26.9202 26.0199,4.3216 65.1847,8.1931 73.3778,7.2927 l 4.0516,-0.5401 -3.2412,-1.4406 c -1.8007,-0.7203 -4.2317,-1.7106 -5.4021,-2.0708 -5.0419,-1.6206 -19.8976,-9.7237 -27.3704,-14.9457 -10.3539,-7.3828 -28.991,-25.9298 -36.3738,-36.3738 -10.6241,-14.9457 -16.1162,-28.991 -18.6371,-47.6281 -0.7203,-5.402 -1.4406,-10.0838 -1.7107,-10.2639 -0.5402,-0.6302 -26.1999,-0.9904 -29.7113,-0.5402 z" />
        <path
           style="fill:#ffde80;fill-opacity:1;stroke:none;stroke-width:0.09003422"
           id="path20"
           d="m 1740.5333,-576.30526 -3.7814,0.3602 -0.5402,5.1319 c -3.2413,30.1615 -14.1354,51.2295 -38.8048,74.9085 -14.4055,13.7752 -28.5408,23.2288 -43.2164,28.8109 -4.4117,1.6207 -8.3732,3.3313 -8.8234,3.7815 -1.6206,1.3505 16.2062,0.7202 34.8433,-1.1704 58.072,-5.8523 96.4266,-15.666 131.63,-33.4928 34.5731,-17.4666 66.0851,-42.8563 81.571,-65.6349 3.9615,-5.7622 4.1416,-6.4825 1.8907,-5.6722 -0.9904,0.2701 -8.3732,1.7107 -16.4762,3.2412 -29.8014,5.4921 -52.49,4.5017 -81.8411,-3.6914 -18.9973,-5.312 -25.0296,-6.3924 -39.1649,-6.6625 -7.3828,-0.1801 -15.2158,-0.1801 -17.2866,0.09 z" />
      </g>
    </g>
  </g>
</svg>
